<svg xmlns="http://www.w3.org/2000/svg" width="900" height="660" viewBox="0 0 900 660"><rect width="100%" height="100%" fill="#0b1020"/><style>text{font-family:Arial,sans-serif;fill:#e8eefc} .axis{stroke:#60708f;stroke-width:1} .grid{stroke:#26324d;stroke-width:1} .a{fill:none;stroke:#55d6be;stroke-width:2} .b{fill:none;stroke:#ffb454;stroke-width:2} .c{fill:none;stroke:#ff6b8a;stroke-width:2}</style><text x="24" y="32" font-size="22" font-weight="700">Estimator health and shield risk — synthetic seed 7</text><rect x="70" y="70" width="790" height="130" fill="#10182c" stroke="#26324d"/><text x="82" y="92" font-size="14">Covariance trace</text><polyline class="a" points="70.0,112.2 74.0,108.0 77.9,156.8 83.8,165.6 87.8,160.9 91.7,178.5 95.7,173.7 101.6,185.8 105.5,180.9 109.5,191.6 113.5,186.9 119.4,193.3 123.3,198.5 127.3,194.3 131.2,199.2 137.2,192.8 141.1,197.4 145.1,193.0 149.0,197.7 152.9,193.4 158.9,196.0 162.8,199.3 166.8,195.1 170.7,199.5 176.7,193.1 180.6,198.2 184.6,193.9 188.5,198.1 194.4,199.7 198.4,195.6 202.3,200.0 206.3,195.9 212.2,197.6 216.2,193.3 220.1,198.0 224.1,193.7 228.0,197.6 233.9,199.9 237.9,195.8 241.8,199.8 245.8,195.7 251.7,197.8 255.7,193.5 259.6,198.1 263.6,193.8 269.5,195.7 273.4,199.8 277.4,195.7 281.3,199.6 285.3,195.5 291.2,197.8 295.2,193.5 299.1,197.8 303.1,193.5 309.0,187.2 312.9,176.8 316.9,163.1 320.8,157.2 326.8,134.5 330.7,134.8 334.7,118.3 338.6,124.5 344.5,127.2 348.5,110.3 352.4,125.3 356.4,108.3 360.3,123.6 366.2,97.4 370.2,116.4 374.2,98.7 378.1,116.4 384.0,122.0 388.0,104.9 391.9,121.5 395.9,104.3 401.8,113.4 405.8,95.4 409.7,112.1 413.7,94.0 419.6,105.1 423.5,121.1 427.5,108.2 431.4,167.9 435.4,163.1 441.3,177.7 445.2,172.7 449.2,185.1 453.2,180.1 459.1,188.4 463.0,196.9 467.0,184.6 470.9,175.3 476.9,155.1 480.8,150.2 484.8,135.2 488.7,136.7 494.6,134.8 498.6,118.9 502.5,132.2 506.5,116.2 510.4,129.6 516.4,104.9 520.3,118.8 524.2,101.6 528.2,117.9 534.1,125.3 538.1,109.0 542.0,124.8 546.0,108.4 551.9,117.4 555.8,100.3 559.8,116.9 563.8,99.7 569.7,107.5 573.6,124.7 577.6,108.3 581.5,125.2 585.5,112.9 591.4,167.0 595.4,161.7 599.3,177.0 603.2,171.8 609.2,183.6 613.1,194.1 617.1,189.7 621.0,197.0 627.0,174.7 630.9,162.1 634.9,145.8 638.8,138.1 644.7,128.8 648.7,110.3 652.6,116.8 656.6,97.5 660.5,110.5 666.5,80.2 670.4,97.6 674.4,76.7 678.3,95.9 684.2,104.0 688.2,84.0 692.1,102.1 696.1,81.9 702.0,91.3 706.0,70.0 709.9,91.4 713.9,70.2 717.8,91.4 723.7,101.9 727.7,81.8 731.6,101.1 735.6,81.0 741.5,91.5 745.5,80.7 749.4,158.6 753.4,153.1 759.3,170.3 763.2,185.4 767.2,180.7 771.1,193.0 777.1,186.1 781.0,194.2 785.0,189.6 788.9,196.1 792.9,191.7 798.8,194.9 802.7,199.3 806.7,195.1 810.6,199.8 816.6,193.5 820.5,197.8 824.5,193.5 828.4,198.2 834.3,199.8 838.3,195.7 842.2,199.2 846.2,195.0 852.1,197.3 856.1,192.9 860.0,197.8"/><rect x="70" y="250" width="790" height="130" fill="#10182c" stroke="#26324d"/><text x="82" y="272" font-size="14">NIS</text><polyline class="b" points="70.0,380.0 74.0,380.0 77.9,379.0 83.8,356.5 87.8,358.8 91.7,326.4 95.7,331.6 101.6,379.0 105.5,379.1 109.5,379.3 113.5,379.4 119.4,374.3 123.3,369.2 127.3,370.2 131.2,369.9 137.2,371.4 141.1,370.6 145.1,371.5 149.0,353.6 152.9,356.2 158.9,364.1 162.8,363.3 166.8,364.9 170.7,371.4 176.7,372.7 180.6,371.9 184.6,372.7 188.5,379.5 194.4,370.9 198.4,371.8 202.3,374.3 206.3,374.8 212.2,368.0 216.2,369.2 220.1,357.4 224.1,359.6 228.0,377.7 233.9,348.3 237.9,351.4 241.8,354.2 245.8,356.8 251.7,378.6 255.7,378.7 259.6,361.7 263.6,363.5 269.5,356.9 273.4,364.9 277.4,366.4 281.3,364.8 285.3,366.3 291.2,371.7 295.2,372.5 299.1,370.5 303.1,371.4 309.0,314.2 312.9,376.5 316.9,315.0 320.8,374.0 326.8,284.5 330.7,345.2 334.7,286.8 338.6,345.5 344.5,373.3 348.5,312.1 352.4,354.2 356.4,294.9 360.3,369.9 366.2,281.0 370.2,337.3 374.2,279.7 378.1,335.3 384.0,337.4 388.0,279.7 391.9,378.9 395.9,317.2 401.8,328.6 405.8,271.8 409.7,345.8 413.7,287.3 419.6,308.8 423.5,346.9 427.5,320.1 431.4,378.7 435.4,378.8 441.3,377.4 445.2,377.7 449.2,358.1 453.2,360.3 459.1,374.8 463.0,353.4 467.0,298.6 470.9,359.0 476.9,278.1 480.8,322.6 484.8,270.8 488.7,341.0 494.6,367.2 498.6,311.1 502.5,366.8 506.5,310.7 510.4,360.2 516.4,279.1 520.3,326.6 524.2,274.5 528.2,333.9 534.1,364.0 538.1,308.2 542.0,372.1 546.0,315.5 551.9,348.4 555.8,294.1 559.8,334.6 563.8,281.6 569.7,279.9 573.6,369.5 577.6,313.2 581.5,371.9 585.5,344.7 591.4,367.0 595.4,368.2 599.3,379.2 603.2,379.3 609.2,379.2 613.1,379.7 617.1,379.7 621.0,356.4 627.0,250.0 630.9,323.2 634.9,253.7 638.8,302.3 644.7,369.7 648.7,295.6 652.6,358.9 656.6,285.9 660.5,371.3 666.5,262.7 670.4,334.0 674.4,263.4 678.3,325.9 684.2,354.2 688.2,281.7 692.1,367.6 696.1,293.7 702.0,336.6 706.0,265.8 709.9,335.4 713.9,264.7 717.8,321.3 723.7,377.9 727.7,303.1 731.6,369.6 735.6,295.6 741.5,335.9 745.5,340.2 749.4,356.8 753.4,359.1 759.3,375.6 763.2,366.8 767.2,368.1 771.1,368.2 777.1,369.8 781.0,374.8 785.0,375.3 788.9,376.2 792.9,376.5 798.8,365.9 802.7,374.6 806.7,375.1 810.6,367.7 816.6,369.4 820.5,371.9 824.5,372.7 828.4,376.9 834.3,362.4 838.3,364.2 842.2,370.3 846.2,371.2 852.1,372.4 856.1,373.2 860.0,376.7"/><rect x="70" y="430" width="790" height="130" fill="#10182c" stroke="#26324d"/><text x="82" y="452" font-size="14">Risk score</text><polyline class="c" points="70.0,551.6 74.0,551.6 77.9,556.0 83.8,542.5 87.8,544.0 91.7,533.1 95.7,533.8 101.6,558.4 105.5,558.5 109.5,558.8 113.5,558.9 119.4,555.5 123.3,552.7 127.3,553.2 131.2,553.3 137.2,554.0 141.1,553.1 145.1,553.4 149.0,544.6 152.9,545.7 158.9,549.7 162.8,548.6 166.8,550.7 170.7,554.2 176.7,553.9 180.6,555.1 184.6,554.8 188.5,559.7 194.4,554.0 198.4,554.9 202.3,556.7 206.3,556.0 212.2,551.9 216.2,552.4 220.1,546.2 224.1,547.4 228.0,557.7 233.9,542.7 237.9,543.4 241.8,545.0 245.8,546.5 251.7,559.2 255.7,557.7 259.6,548.4 263.6,549.4 269.5,546.0 273.4,550.5 277.4,551.2 281.3,550.2 285.3,550.2 291.2,554.5 295.2,553.7 299.1,554.4 303.1,553.6 309.0,468.4 312.9,492.1 316.9,463.8 320.8,492.3 326.8,459.3 330.7,475.6 334.7,453.5 338.6,475.4 344.5,484.4 348.5,460.2 352.4,476.0 356.4,457.8 360.3,483.3 366.2,450.1 370.2,466.6 374.2,454.8 378.1,469.2 384.0,467.1 388.0,457.5 391.9,489.6 395.9,463.7 401.8,466.2 405.8,452.2 409.7,474.8 413.7,454.7 419.6,458.1 423.5,470.9 427.5,524.6 431.4,556.9 435.4,555.8 441.3,555.8 445.2,556.0 449.2,546.2 453.2,545.4 459.1,554.4 463.0,544.7 467.0,464.0 470.9,486.0 476.9,463.5 480.8,468.7 484.8,456.1 488.7,471.1 494.6,480.4 498.6,463.7 502.5,487.4 506.5,460.6 510.4,481.7 516.4,454.1 520.3,467.3 524.2,457.2 528.2,463.8 534.1,481.6 538.1,460.8 542.0,486.1 546.0,462.2 551.9,474.2 555.8,458.1 559.8,468.8 563.8,455.5 569.7,457.0 573.6,486.0 577.6,465.6 581.5,488.2 585.5,533.0 591.4,548.8 595.4,549.2 599.3,557.7 603.2,556.5 609.2,558.0 613.1,560.0 617.1,559.2 621.0,546.2 627.0,441.2 630.9,450.0 634.9,441.3 638.8,442.5 644.7,467.5 648.7,440.5 652.6,457.6 656.6,436.2 660.5,465.6 666.5,434.1 670.4,448.6 674.4,430.0 678.3,442.6 684.2,455.9 688.2,434.0 692.1,460.2 696.1,436.2 702.0,445.5 706.0,433.3 709.9,443.5 713.9,434.7 717.8,443.0 723.7,470.8 727.7,435.9 731.6,462.9 735.6,437.0 741.5,443.4 745.5,528.6 749.4,542.0 753.4,543.1 759.3,555.0 763.2,550.1 767.2,549.8 771.1,552.4 777.1,552.8 781.0,555.5 785.0,556.3 788.9,557.6 792.9,556.9 798.8,550.3 802.7,556.1 806.7,555.9 810.6,552.4 816.6,553.3 820.5,554.5 824.5,555.1 828.4,558.2 834.3,549.1 838.3,549.9 842.2,552.6 846.2,553.3 852.1,554.5 856.1,554.8 860.0,558.5"/><text x="430" y="630" font-size="16">Time [s]</text><text x="70" y="650" font-size="12" fill="#9fb0d0">Generated from CI CSV artifacts; synthetic validation only.</text></svg>