<svg xmlns="http://www.w3.org/2000/svg" width="1200" height="520" viewBox="0 0 1200 520"><rect width="1200" height="520" rx="28" fill="#08111f"/><text x="54" y="58" fill="#f8fafc" font-family="Inter,Arial" font-size="30" font-weight="700">Calibrated failure prediction under domain shift</text><text x="54" y="90" fill="#94a3b8" font-family="Inter,Arial" font-size="16">Probability quality and distribution shift are monitored separately before shield decisions.</text><g transform="translate(55 135)"><rect width="510" height="320" rx="22" fill="#0f172a" stroke="#24324a"/><text x="28" y="40" fill="#e2e8f0" font-family="Inter,Arial" font-size="20" font-weight="700">Reliability view</text><line x1="65" y1="260" x2="450" y2="260" stroke="#64748b"/><line x1="65" y1="260" x2="65" y2="70" stroke="#64748b"/><line x1="65" y1="260" x2="450" y2="70" stroke="#334155" stroke-dasharray="7 7"/><polyline points="65,260 125,235 185,205 245,177 305,143 365,112 450,76" fill="none" stroke="#22d3ee" stroke-width="6" stroke-linecap="round" stroke-linejoin="round"/><g fill="#22d3ee"><circle cx="125" cy="235" r="7"/><circle cx="185" cy="205" r="7"/><circle cx="245" cy="177" r="7"/><circle cx="305" cy="143" r="7"/><circle cx="365" cy="112" r="7"/></g><text x="255" y="300" fill="#94a3b8" font-family="Inter,Arial" font-size="14" text-anchor="middle">predicted failure probability</text><text transform="translate(22 170) rotate(-90)" fill="#94a3b8" font-family="Inter,Arial" font-size="14" text-anchor="middle">observed failure frequency</text><rect x="300" y="230" width="165" height="48" rx="12" fill="#132b3a"/><text x="382" y="251" fill="#67e8f9" font-family="Inter,Arial" font-size="13" text-anchor="middle">Brier · NLL · ECE</text><text x="382" y="269" fill="#cbd5e1" font-family="Inter,Arial" font-size="12" text-anchor="middle">calibration diagnostics</text></g><g transform="translate(635 135)"><rect width="510" height="320" rx="22" fill="#0f172a" stroke="#24324a"/><text x="28" y="40" fill="#e2e8f0" font-family="Inter,Arial" font-size="20" font-weight="700">Shift-state map</text><g opacity=".9"><circle cx="150" cy="145" r="14" fill="#34d399"/><circle cx="180" cy="118" r="11" fill="#34d399"/><circle cx="205" cy="160" r="12" fill="#34d399"/><circle cx="230" cy="130" r="10" fill="#34d399"/><circle cx="185" cy="185" r="9" fill="#34d399"/><circle cx="335" cy="105" r="13" fill="#f59e0b"/><circle cx="380" cy="145" r="12" fill="#fb7185"/><circle cx="410" cy="205" r="14" fill="#fb7185"/><circle cx="355" cy="225" r="10" fill="#f59e0b"/></g><ellipse cx="195" cy="150" rx="105" ry="78" fill="none" stroke="#34d399" stroke-width="3" stroke-dasharray="8 7"/><ellipse cx="385" cy="165" rx="95" ry="115" fill="none" stroke="#fb7185" stroke-width="3" stroke-dasharray="8 7"/><text x="195" y="270" fill="#6ee7b7" font-family="Inter,Arial" font-size="15" text-anchor="middle" font-weight="700">IN DISTRIBUTION</text><text x="385" y="270" fill="#fda4af" font-family="Inter,Arial" font-size="15" text-anchor="middle" font-weight="700">CONFIRMED / SEVERE SHIFT</text><text x="255" y="300" fill="#94a3b8" font-family="Inter,Arial" font-size="13" text-anchor="middle">visual · inertial · innovation · covariance features</text></g></svg>