<svg xmlns="http://www.w3.org/2000/svg" width="1200" height="380" viewBox="0 0 1200 380"><rect width="1200" height="380" rx="28" fill="#08111f"/><text x="54" y="58" fill="#e6edf3" font-family="Arial" font-size="30" font-weight="700">Bias-Aware IMU Preintegration and 15-State ESKF</text><text x="54" y="91" fill="#8b9bb4" font-family="Arial" font-size="17">Nominal state: position, velocity, attitude, accelerometer bias, gyroscope bias</text><g font-family="Arial" text-anchor="middle"><rect x="55" y="135" width="210" height="130" rx="18" fill="#211b38" stroke="#a78bfa" stroke-width="2"/><text x="160" y="176" fill="#c4b5fd" font-size="21" font-weight="700">IMU Samples</text><text x="160" y="207" fill="#d4dde8" font-size="15">acceleration • angular rate</text><text x="160" y="232" fill="#d4dde8" font-size="15">timestamps • validity</text><rect x="330" y="135" width="235" height="130" rx="18" fill="#2a2112" stroke="#fbbf24" stroke-width="2"/><text x="447" y="176" fill="#fde68a" font-size="21" font-weight="700">Preintegrate</text><text x="447" y="207" fill="#d4dde8" font-size="15">ΔR • Δv • Δp</text><text x="447" y="232" fill="#d4dde8" font-size="15">covariance • bias Jacobians</text><rect x="630" y="135" width="235" height="130" rx="18" fill="#0d2237" stroke="#38bdf8" stroke-width="2"/><text x="747" y="176" fill="#7dd3fc" font-size="21" font-weight="700">ESKF Propagation</text><text x="747" y="207" fill="#d4dde8" font-size="15">15-state error dynamics</text><text x="747" y="232" fill="#d4dde8" font-size="15">quaternion normalization</text><rect x="930" y="135" width="215" height="130" rx="18" fill="#10261d" stroke="#4ade80" stroke-width="2"/><text x="1037" y="176" fill="#86efac" font-size="21" font-weight="700">Visual Update</text><text x="1037" y="207" fill="#d4dde8" font-size="15">innovation • gain</text><text x="1037" y="232" fill="#d4dde8" font-size="15">Joseph covariance form</text><path d="M265 200H330M565 200H630M865 200H930" stroke="#94a3b8" stroke-width="3" marker-end="url(#a)"/></g><defs><marker id="a" markerWidth="10" markerHeight="10" refX="9" refY="3" orient="auto"><path d="M0,0 L0,6 L9,3 z" fill="#94a3b8"/></marker></defs><text x="55" y="325" fill="#d4dde8" font-family="Arial" font-size="16">Consistency outputs: NIS • NEES • covariance trace • eigenvalue health • innovation statistics</text><text x="55" y="351" fill="#64748b" font-family="Arial" font-size="15">Research Prototype • numerical invariant and analytical motion validation; no production-VIO claim.</text></svg>