<svg xmlns="http://www.w3.org/2000/svg" width="1200" height="360" viewBox="0 0 1200 360"><rect width="1200" height="360" rx="28" fill="#08111f"/><text x="54" y="58" fill="#e6edf3" font-family="Arial" font-size="30" font-weight="700">Real Visual Feature Tracking</text><text x="54" y="91" fill="#8b9bb4" font-family="Arial" font-size="17">Shi–Tomasi detection • pyramidal Lucas–Kanade • forward–backward validation • persistent track health</text><g font-family="Arial" text-anchor="middle"><g><rect x="55" y="135" width="205" height="120" rx="18" fill="#0d2237" stroke="#38bdf8" stroke-width="2"/><text x="157" y="180" fill="#7dd3fc" font-size="21" font-weight="700">Detect</text><text x="157" y="212" fill="#d4dde8" font-size="16">Shi–Tomasi corners</text></g><g><rect x="330" y="135" width="205" height="120" rx="18" fill="#10261d" stroke="#4ade80" stroke-width="2"/><text x="432" y="180" fill="#86efac" font-size="21" font-weight="700">Track</text><text x="432" y="212" fill="#d4dde8" font-size="16">Pyramidal LK flow</text></g><g><rect x="605" y="135" width="205" height="120" rx="18" fill="#2a1b18" stroke="#fb923c" stroke-width="2"/><text x="707" y="180" fill="#fdba74" font-size="21" font-weight="700">Reject</text><text x="707" y="212" fill="#d4dde8" font-size="16">Forward–backward check</text></g><g><rect x="880" y="135" width="265" height="120" rx="18" fill="#211b38" stroke="#a78bfa" stroke-width="2"/><text x="1012" y="180" fill="#c4b5fd" font-size="21" font-weight="700">Monitor</text><text x="1012" y="208" fill="#d4dde8" font-size="15">age • survival • outliers</text><text x="1012" y="232" fill="#d4dde8" font-size="15">blur • brightness • count</text></g><path d="M260 195H330M535 195H605M810 195H880" stroke="#94a3b8" stroke-width="3" marker-end="url(#a)"/></g><defs><marker id="a" markerWidth="10" markerHeight="10" refX="9" refY="3" orient="auto"><path d="M0,0 L0,6 L9,3 z" fill="#94a3b8"/></marker></defs><text x="55" y="317" fill="#64748b" font-family="Arial" font-size="15">Research Prototype • visual health diagnostics are preserved for downstream failure prediction and shift detection.</text></svg>